<?xml version="1.0" encoding="UTF-8" standalone="no"?>
<svg
   viewBox="0 0 267.76 85.04"
   version="1.1"
   id="svg3238"
   sodipodi:docname="10DS Black Landscape Berry DS.svg"
   inkscape:version="1.2.1 (9c6d41e, 2022-07-14)"
   xmlns:inkscape="http://www.inkscape.org/namespaces/inkscape"
   xmlns:sodipodi="http://sodipodi.sourceforge.net/DTD/sodipodi-0.dtd"
   xmlns="http://www.w3.org/2000/svg"
   xmlns:svg="http://www.w3.org/2000/svg">
  <sodipodi:namedview
     id="namedview3240"
     pagecolor="#ffffff"
     bordercolor="#999999"
     borderopacity="1"
     inkscape:showpageshadow="0"
     inkscape:pageopacity="0"
     inkscape:pagecheckerboard="0"
     inkscape:deskcolor="#d1d1d1"
     showgrid="false"
     inkscape:zoom="2.7751646"
     inkscape:cx="76.932374"
     inkscape:cy="42.70017"
     inkscape:window-width="1920"
     inkscape:window-height="1027"
     inkscape:window-x="0"
     inkscape:window-y="25"
     inkscape:window-maximized="1"
     inkscape:current-layer="Layer_1-2" />
  <defs
     id="defs3104">
    <style
       id="style3102">.cls-1{fill:none;}.cls-2{fill:#fff;}.cls-3{fill:#c6c6c6;}.cls-4{fill:#878787;}</style>
  </defs>
  <g
     id="Layer_2"
     data-name="Layer 2">
    <g
       id="Layer_1-2"
       data-name="Layer 1">
      <rect
         class="cls-1"
         width="267.76"
         height="85.04"
         id="rect3106" />
      <path
         class="cls-2"
         d="M245.35,27.61a12.09,12.09,0,0,0-4.4-3.86,11.13,11.13,0,0,0-5.23-1.43,13.27,13.27,0,0,0-2.64.26,6.21,6.21,0,0,0-2.41,1,6.33,6.33,0,0,0-1.8,1.91,5.63,5.63,0,0,0-.73,3,5.3,5.3,0,0,0,.58,2.61,5.45,5.45,0,0,0,1.68,1.82A14.75,14.75,0,0,0,233,34.33c1,.43,2.17.88,3.44,1.34q2.76,1,5.74,2.3a20.9,20.9,0,0,1,5.43,3.34,16.94,16.94,0,0,1,4,5.16,16.47,16.47,0,0,1,1.61,7.67,22.43,22.43,0,0,1-1.72,9.15A18,18,0,0,1,247,69.66a19,19,0,0,1-6.65,3.73,24.93,24.93,0,0,1-7.73,1.21,28.57,28.57,0,0,1-11.24-2.29,23.89,23.89,0,0,1-9-6.55l8.57-9.89a16.19,16.19,0,0,0,5.24,4.64,12.82,12.82,0,0,0,6.46,1.87,11.61,11.61,0,0,0,2.83-.35,6.62,6.62,0,0,0,2.41-1.13,5.43,5.43,0,0,0,1.64-2.08,7.23,7.23,0,0,0,.62-3.12,5.44,5.44,0,0,0-.77-3,8,8,0,0,0-2.18-2.21,16.92,16.92,0,0,0-3.52-1.82q-2.1-.82-4.78-1.78a40.91,40.91,0,0,1-5.08-2.25,17,17,0,0,1-4.44-3.34,15.53,15.53,0,0,1-3.14-4.94A18.74,18.74,0,0,1,215,29.34a19.34,19.34,0,0,1,1.83-8.76,17.59,17.59,0,0,1,4.82-6,19.57,19.57,0,0,1,6.73-3.42A26.93,26.93,0,0,1,236,10.09,25.17,25.17,0,0,1,245.31,12a23.68,23.68,0,0,1,8.38,5.64Z"
         id="path3108"
         style="fill:#c70678;fill-opacity:1" />
      <path
         class="cls-2"
         d="M126.8,73V28L116.7,36.8l-6.65-10.32,17.81-14.83h11.71V73Z"
         id="path3110" />
      <path
         class="cls-2"
         d="M174.89,61.51a19.17,19.17,0,1,1,0-38.33h0V10.63h0a31.72,31.72,0,0,0,0,63.44h0V61.51Z"
         id="path3112" />
      <path
         class="cls-2"
         d="M180.56,42.33l9.79,30.13A30.12,30.12,0,0,1,180.56,74Z"
         id="path3114"
         style="fill:#c70678;fill-opacity:1" />
      <path
         class="cls-3"
         d="M180.56,42.33,206.19,61a30.32,30.32,0,0,1-15.84,11.51Z"
         id="path3116"
         style="fill:#8f1660;fill-opacity:1" />
      <path
         class="cls-4"
         d="M180.56,42.33l28.72,13.39A30.59,30.59,0,0,1,206.19,61Z"
         id="path3118"
         style="fill:#5e0f45;fill-opacity:1" />
      <path
         class="cls-3"
         d="M180.56,42.33l30.13-9.79a30.33,30.33,0,0,1-1.41,23.18Z"
         id="path3120"
         style="fill:#8f1660;fill-opacity:1" />
      <path
         class="cls-2"
         d="M180.56,42.33V10.65a31.18,31.18,0,0,1,30.13,21.89Z"
         id="path3122"
         style="fill:#c70678;fill-opacity:1" />
      <path
         class="cls-2"
         d="M43.05,23.17c-.35.66-.64,1-.6,1.54s.58.88.83,1.39c.24-.6.62-1,.57-1.51s-.69-1.08-.8-1.42"
         id="path3124" />
      <path
         class="cls-2"
         d="M51.89,23.17c.34.66.64,1,.59,1.54s-.58.88-.83,1.39c-.23-.6-.61-1-.57-1.51s.69-1.08.81-1.42"
         id="path3126" />
      <path
         class="cls-2"
         d="M38,22.79a.6.6,0,0,0,.6-.6.6.6,0,0,0-1.2,0,.6.6,0,0,0,.6.6"
         id="path3128" />
      <path
         class="cls-2"
         d="M38.36,23.64a.6.6,0,0,0-1.2,0,.6.6,0,0,0,1.2,0"
         id="path3130" />
      <path
         class="cls-2"
         d="M38.65,25.09a.6.6,0,1,0-1.19,0,.6.6,0,0,0,1.19,0"
         id="path3132" />
      <path
         class="cls-2"
         d="M41.27,19.94a.59.59,0,0,0,.59-.6.6.6,0,1,0-1.19,0,.59.59,0,0,0,.6.6"
         id="path3134" />
      <path
         class="cls-2"
         d="M39.78,20.4a.6.6,0,0,0,.6-.6.6.6,0,1,0-1.2,0,.6.6,0,0,0,.6.6"
         id="path3136" />
      <path
         class="cls-2"
         d="M38.61,21.42a.6.6,0,1,0-.59-.6.6.6,0,0,0,.59.6"
         id="path3138" />
      <path
         class="cls-2"
         d="M42.82,20.08a.6.6,0,1,0-.59-.6.6.6,0,0,0,.59.6"
         id="path3140" />
      <path
         class="cls-2"
         d="M44.31,20.51a.6.6,0,0,0,.59-.6.6.6,0,1,0-.59.6"
         id="path3142" />
      <path
         class="cls-2"
         d="M45.7,21.16a.6.6,0,1,0-.6-.59.6.6,0,0,0,.6.59"
         id="path3144" />
      <path
         class="cls-2"
         d="M56.36,22.19a.6.6,0,1,0,.59-.6.59.59,0,0,0-.59.6"
         id="path3146" />
      <path
         class="cls-2"
         d="M57.15,23a.6.6,0,0,0-.59.6.6.6,0,0,0,1.2,0,.6.6,0,0,0-.61-.6"
         id="path3148" />
      <path
         class="cls-2"
         d="M56.86,24.49a.6.6,0,0,0,0,1.19.6.6,0,1,0,0-1.19"
         id="path3150" />
      <path
         class="cls-2"
         d="M53.65,19.94a.6.6,0,0,0,.6-.6.6.6,0,0,0-1.2,0,.6.6,0,0,0,.6.6"
         id="path3152" />
      <path
         class="cls-2"
         d="M55.13,20.4a.6.6,0,0,0,.6-.6.6.6,0,1,0-.6.6"
         id="path3154" />
      <path
         class="cls-2"
         d="M56.3,21.42a.6.6,0,1,0-.59-.6.6.6,0,0,0,.59.6"
         id="path3156" />
      <path
         class="cls-2"
         d="M52.09,20.08a.6.6,0,1,0-.6-.6.6.6,0,0,0,.6.6"
         id="path3158" />
      <path
         class="cls-2"
         d="M50.61,20.51a.6.6,0,0,0,.6-.6.6.6,0,0,0-1.2,0,.6.6,0,0,0,.6.6"
         id="path3160" />
      <path
         class="cls-2"
         d="M48.62,20.56a.6.6,0,1,0,1.19,0,.6.6,0,0,0-1.19,0"
         id="path3162" />
      <path
         class="cls-2"
         d="M46.44,23.8h.67V21.24a2.39,2.39,0,0,1-.67-.21Z"
         id="path3164" />
      <path
         class="cls-2"
         d="M48.48,21a2.49,2.49,0,0,1-.67.21V23.8h.67Z"
         id="path3166" />
      <path
         class="cls-2"
         d="M47.07,18.21V16.69a1.9,1.9,0,0,0-1.47,1.52Z"
         id="path3168" />
      <path
         class="cls-2"
         d="M47.85,18.21h1.46a1.88,1.88,0,0,0-1.46-1.52Z"
         id="path3170" />
      <path
         class="cls-2"
         d="M45.62,18.94a1.9,1.9,0,0,0,1.84,1.47,1.88,1.88,0,0,0,1.83-1.47Z"
         id="path3172" />
      <path
         class="cls-2"
         d="M48.49,16.45a2,2,0,0,1-.82-1.32A2.4,2.4,0,0,1,49,16V13.93a2.37,2.37,0,0,1-1.36.87,3.1,3.1,0,0,1,.78-1.48h-2a3,3,0,0,1,.78,1.48,2.38,2.38,0,0,1-1.35-.87V16a2.41,2.41,0,0,1,1.35-.86,2,2,0,0,1-.81,1.32Z"
         id="path3174" />
      <path
         class="cls-2"
         d="M48.54,59.32a.74.74,0,0,1,0-1.47.74.74,0,1,1,0,1.47M45,58.24a.81.81,0,0,1,0-1.62.81.81,0,0,1,0,1.62M43.8,54.66l-.2-.15a.7.7,0,0,0-1,0,2.69,2.69,0,0,0-.43.46l-.2.23.13.11c.39.31.44.64.34.84a.37.37,0,0,1-.2.15,1,1,0,0,1-.74-.18L41.35,56l-.08.15-.08.11-.1.15a1.42,1.42,0,0,0-.24.69.32.32,0,0,0,0,.14.62.62,0,0,0,.37.39l.1.06.59.35a1,1,0,0,1-1,0A1.57,1.57,0,0,1,40.06,57a3.11,3.11,0,0,1,.57-1.58l.06-.09-.06-.1a3.07,3.07,0,0,1-.26-.51c.19,0,.38.06.58.11l.1,0,.07-.07a2.93,2.93,0,0,1,1.74-1,1.25,1.25,0,0,1,.93.46,1.34,1.34,0,0,1,.34.72c-.09-.08-.22-.16-.33-.25m6.88,2.82a37.61,37.61,0,0,1-6.2-2.22v0A1.66,1.66,0,0,0,44.05,54a1.58,1.58,0,0,0-1.19-.57,1.54,1.54,0,0,0-.56.1,9.16,9.16,0,0,1-.87-.89,10.14,10.14,0,0,1-1.84-3.2A11.9,11.9,0,0,1,39,47.27a1.94,1.94,0,0,1-2,1.43c0-.12,0-.43-.1-.46a1.48,1.48,0,0,1-1.84.34A15.67,15.67,0,0,0,35.83,51a14.08,14.08,0,0,0,2.71,4.53,11.43,11.43,0,0,0,1.2,1.21,2.12,2.12,0,0,0,0,.24,1.93,1.93,0,0,0,1,1.45,1.47,1.47,0,0,0,1.54-.18,16.3,16.3,0,0,0,3.33,1.29,15,15,0,0,0,3.83.61A6.79,6.79,0,0,0,52.78,59,9,9,0,0,0,54,58a.68.68,0,0,0,.12-.12,10.52,10.52,0,0,1-3.48-.42"
         id="path3176" />
      <path
         class="cls-2"
         d="M50.16,65.11a.66.66,0,0,0-.51-.4c-.76,0-.47,2-1.38,2a.55.55,0,0,1-.61-.54c0-.29.2-.37.2-.6s-.18-.31-.38-.31-.38.08-.38.31.2.31.2.6a.56.56,0,0,1-.62.54c-.91,0-.61-2-1.37-2a.66.66,0,0,0-.51.4,1.75,1.75,0,0,1-.24-.8.88.88,0,0,1,.89-.88c1,0,.78,1.4,1.27,1.4a.34.34,0,0,0,.38-.35c0-.39-.71-.77-.71-1.34s.51-1,1.09-1.5c.57.45,1.09.93,1.09,1.5s-.71,1-.71,1.34a.34.34,0,0,0,.37.35c.49,0,.26-1.4,1.28-1.4a.89.89,0,0,1,.89.88,1.89,1.89,0,0,1-.24.8m-2.68,2.83a.5.5,0,1,1,.5-.49.49.49,0,0,1-.5.49m2-4.9a1.58,1.58,0,0,0-.38.05V60.84a15.22,15.22,0,0,1-3.28-.5V63.1a1.34,1.34,0,0,0-.4-.06,1.27,1.27,0,0,0-1.28,1.27,2.32,2.32,0,0,0,.63,1.45c.15-.34.29-.63.48-.63.4,0,.22,2,1.36,2a1.07,1.07,0,0,0-.06.32.9.9,0,0,0,1.79,0,1.07,1.07,0,0,0,0-.32c1.14,0,1-2,1.34-2,.2,0,.32.26.5.63a2.32,2.32,0,0,0,.63-1.45A1.27,1.27,0,0,0,49.51,63"
         id="path3178" />
      <path
         class="cls-2"
         d="M75.93,65.74a.25.25,0,0,0-.3-.14c-2.63.77-5.9-1.41-9.06-3.52-2.66-1.77-5.18-3.45-7.33-3.45a4.33,4.33,0,0,0-2.11.5,3.88,3.88,0,0,0-1.68,1.94,11,11,0,0,1-1.05,2,2.87,2.87,0,0,0-.63,1.51,1.67,1.67,0,0,0,.55,1.18,5.5,5.5,0,0,0,1.38,1l.4.2c.53.25.85.42.91.72a17,17,0,0,1-3.92,1.1,34.56,34.56,0,0,1-11.24,0,16.92,16.92,0,0,1-3.93-1.1c0-.45.37-.62.93-.89l.42-.2a7.51,7.51,0,0,0,1.35-.85,1.42,1.42,0,0,0,.54-1.11A2.93,2.93,0,0,0,40.54,63a11,11,0,0,1-1-2,3.79,3.79,0,0,0-1.69-1.93,4.21,4.21,0,0,0-2.1-.51c-2.16,0-4.67,1.68-7.33,3.45-3.16,2.11-6.43,4.29-9.06,3.52a.25.25,0,0,0-.3.15.24.24,0,0,0,.13.3,10.63,10.63,0,0,1,2.19,1.44,5.07,5.07,0,0,0,2.84,1.43A6.83,6.83,0,0,0,27.33,68a35,35,0,0,0,3.23-2c2.08-1.43,4.23-2.89,6.27-3-.21.22-.42.4-.62.58a2.45,2.45,0,0,0-1.12,1.95,4.45,4.45,0,0,0,.61,2c.1.21.22.45.34.73a7.54,7.54,0,0,1,.46,1.46c.06.24.12.51.21.83a3.1,3.1,0,0,0,1.87,2.15C40.31,73.5,43.3,74,47.47,74s7.15-.45,8.89-1.33a3.05,3.05,0,0,0,1.86-2.15c.09-.32.15-.59.22-.83a6.91,6.91,0,0,1,.46-1.46c.16-.37.32-.68.46-.94a3.48,3.48,0,0,0,.56-1.73,2.57,2.57,0,0,0-1.18-2c-.2-.18-.42-.38-.64-.61,2,.17,4.2,1.63,6.28,3.06a33.72,33.72,0,0,0,3.23,2,7,7,0,0,0,3.17.93,5.09,5.09,0,0,0,2.83-1.44,11,11,0,0,1,2.19-1.43.26.26,0,0,0,.13-.31"
         id="path3180" />
      <path
         class="cls-2"
         d="M47.82,45.29V35.4a7.44,7.44,0,0,1,3,.77,8.46,8.46,0,0,1,2.72,2.15,10.39,10.39,0,0,1,1.85,3.2A11.63,11.63,0,0,1,56,45.29Zm-.34-14a10.45,10.45,0,0,0-5.86,1.58c-.66-.39-.93-.77-.93-1.22,0-1.59,4.5-1.73,6.78-1.73h0c2.28,0,6.79.14,6.79,1.73,0,.45-.29.83-.94,1.22a10.44,10.44,0,0,0-5.85-1.58m-.15,14H38.91a11.38,11.38,0,0,1,.68-3.77,10.36,10.36,0,0,1,1.84-3.2,8.57,8.57,0,0,1,2.72-2.15,7.57,7.57,0,0,1,3.18-.78Zm12.77-.63a3.59,3.59,0,0,1-1-1.18c-.31-.65-1.61-3.22-1.82-3.57a1.48,1.48,0,0,1-.25-.76,1.15,1.15,0,0,1,.28-.69c.1-.12.38-.4.49-.57a2.78,2.78,0,0,1,.23-.31,13.35,13.35,0,0,0-1.59-2.14,12.93,12.93,0,0,0-2.55-2.21,1.89,1.89,0,0,0,1-1.59,1.41,1.41,0,0,0-.53-1.11,14.56,14.56,0,0,1,2.28-4.61l-1.69-.72a2.63,2.63,0,0,1,.36,1.91,2.1,2.1,0,0,1-.93-1.28,7.42,7.42,0,0,1-.63,1.84,1.51,1.51,0,0,1,1.38-.12,2,2,0,0,1-2.13.71c-.6-.15-1.2-.47-1.17-.93a.57.57,0,0,1,.59-.58c.37,0,.39.6.28.85.48-.27,1-1.69.23-1.91s-1.15.66-1.34,1.29c-.11-.76-.42-1.49-1-1.44-.77.05-.52,1.49-.25,1.85.05-.5.32-.77.56-.75s.48.16.43.61-.7.75-1.45.75a1.84,1.84,0,0,1-2.09-1.6,2.57,2.57,0,0,1,1.5.9,9.32,9.32,0,0,1,0-2.3,2.38,2.38,0,0,1-1.47.91A2.72,2.72,0,0,1,49,24.31H45.93a2.75,2.75,0,0,1,1.23,1.59A2.36,2.36,0,0,1,45.7,25a8.85,8.85,0,0,1,0,2.3,2.61,2.61,0,0,1,1.48-.9A1.84,1.84,0,0,1,45.09,28c-.75,0-1.4-.28-1.45-.75s.23-.6.44-.61.51.25.55.75c.28-.36.52-1.8-.25-1.85-.6-.05-.92.68-1,1.44-.2-.63-.74-1.45-1.34-1.29s-.25,1.64.24,1.91c-.12-.25-.1-.81.27-.85a.58.58,0,0,1,.6.58c0,.46-.58.78-1.18.93a2,2,0,0,1-2.12-.71,1.53,1.53,0,0,1,1.39.12,7.83,7.83,0,0,1-.62-1.84,2.19,2.19,0,0,1-1,1.3A2.69,2.69,0,0,1,40,25.2l-1.69.72a14.84,14.84,0,0,1,2.28,4.62,1.42,1.42,0,0,0-.51,1.1,1.88,1.88,0,0,0,1,1.59,12.65,12.65,0,0,0-2.55,2.21,14.51,14.51,0,0,0-2.7,4.5c.24.24,1.25,1.34,1.49,1.65A2.7,2.7,0,0,1,38,43.07a2.2,2.2,0,0,0,.6,1.58,3,3,0,0,1,.32,1.13h8.41v9.15a1.26,1.26,0,0,0-1,.45c1,.39,1.9.75,2.83,1a2.35,2.35,0,0,1,.51-1.34s-1.22-.12-1.88-.16V45.78H56a11.84,11.84,0,0,1-.67,3.62,10.32,10.32,0,0,1-1.85,3.21,8.6,8.6,0,0,1-2.72,2.15c-.16.08-.16.2-.33.27a2.19,2.19,0,0,0-.4.74,3.08,3.08,0,0,0-.19.83c.38.12.59.18,1,.27,2.89.72,3.6.51,3.76.39h0a13.13,13.13,0,0,0,1.81-1.7A14.32,14.32,0,0,0,59.12,51a15.66,15.66,0,0,0,1-5.54c0-.35,0-.46,0-.81"
         id="path3182" />
      <path
         class="cls-2"
         d="M52.42,39.42a.23.23,0,0,0-.09.23.26.26,0,0,0,.25.16.6.6,0,0,0-.19.35.52.52,0,0,0,.38-.1.26.26,0,0,0,.09.29.24.24,0,0,0,.22,0,9,9,0,0,1,1.23,3.34.49.49,0,0,0-.3-.09.56.56,0,0,0,.16.38H52.12a.25.25,0,0,0-.14-.27.22.22,0,0,0-.27.1.57.57,0,0,0-.17-.37.59.59,0,0,0-.15.37.24.24,0,0,0-.28-.1A.25.25,0,0,0,51,44H49.22a.55.55,0,0,0,.12-.35.61.61,0,0,0-.35.13V40.92a.26.26,0,0,0,.28-.13.25.25,0,0,0-.1-.29.51.51,0,0,0,.36-.16.56.56,0,0,0-.36-.16.22.22,0,0,0,.1-.27.25.25,0,0,0-.28-.14v-2.4a.52.52,0,0,0,.3.12.52.52,0,0,0-.08-.34,5.81,5.81,0,0,1,1.58.78,7.37,7.37,0,0,1,1.63,1.49m2.32,4.25a.16.16,0,0,1-.09.3,9.24,9.24,0,0,0-1.58-4.17l0,0a.57.57,0,0,0,.35-.43.56.56,0,0,0-.54.23,2,2,0,0,0-.17-.23A8,8,0,0,0,51,37.68a6.75,6.75,0,0,0-2-.91c0-.16.22-.18.3,0,0-.26-.2-.39-.33-.34a.24.24,0,0,0-.15.21.54.54,0,0,0-.38-.2.62.62,0,0,0,.12.39.26.26,0,0,0-.22.11.3.3,0,0,0,.29.39c-.12-.11-.07-.31.09-.29v3.21a.55.55,0,0,0-.54.13.53.53,0,0,0,.54.14V44c-.18,0-.22-.2-.08-.3a.3.3,0,0,0-.32.36.26.26,0,0,0,.27.13.53.53,0,0,0-.14.36.49.49,0,0,0,.36-.13.25.25,0,0,0,.14.26c.12.06.35,0,.35-.31-.09.13-.3.09-.3-.06h2.43a.51.51,0,0,0,.13.52.5.5,0,0,0,.14-.52h2.7c0,.16-.2.21-.29.07,0,.27.24.37.36.31a.24.24,0,0,0,.13-.27.53.53,0,0,0,.36.13.5.5,0,0,0-.14-.36.29.29,0,0,0,.27-.13.31.31,0,0,0-.33-.36"
         id="path3184" />
      <path
         class="cls-2"
         d="M53.3,42.79a.43.43,0,0,0,.23-.21.27.27,0,0,1-.24,0c.08,0,.18,0,.08-.15s-.16-.15-.26,0a.58.58,0,0,1-.74-.51.46.46,0,0,0,.22.19l.08,0,.08,0,.19,0h0v0a.29.29,0,0,0,.26-.25c0-.27-.23-.4-.51-.64-.12-.09-.19-.17-.27-.24s0-.36-.27-.72a2.3,2.3,0,0,0-.09-.31.9.9,0,0,0,.16,1c.27.3.85.58.83.84a.17.17,0,0,1-.15.13h-.08l-.05,0-.13,0-.2-.16a6.11,6.11,0,0,1-.61-.75,1.08,1.08,0,0,1-.1-1c.19-.26-.12-.8-.29-.93a.56.56,0,0,0,0-.28s-.12,0-.16,0-.07-.12-.14-.13-.12-.09-.12-.13-.1.12-.17.13-.13,0-.17,0a.27.27,0,0,1-.2.07c-.12,0-.11.06-.1.14s0,.13.08.15l0,0,.09.11,0-.12s.19,0,.22,0,0,.09,0,.1a1,1,0,0,1-.24,0c-.06,0-.06.08-.06.14s.08.09.2,0,.37,0,.37.06c0,.29-.34.29-.41.63a.73.73,0,0,1-.2-.19,1.28,1.28,0,0,0-.25-.3,1.73,1.73,0,0,0-.25-.21c-.12-.07-.12-.13-.12-.25a2.89,2.89,0,0,0,0-.29.16.16,0,0,0,0-.08.15.15,0,0,0-.15-.11.19.19,0,0,1,.06.11l-.05.05a.06.06,0,0,0,0,.1V39s0,0,0,0-.05-.18-.13-.19h0c0-.07-.08-.14-.18,0s.06,0,.08,0a.45.45,0,0,0,0,.08c0,.07,0,.11.14.11s0,0,0,0a0,0,0,0,0,0,0h0c-.14,0-.19,0-.2.07s0,0,0,0-.06.1,0,.16,0-.07,0-.08,0,0,0,0a.05.05,0,0,0,0,0s0,0,.07,0,0,0,0,0l0,0a0,0,0,0,1,0,0c-.09.08-.07.15,0,.18a.11.11,0,0,1-.2-.08c-.11.19.08.31.23.24s0,.2,0,.2,0,0,0,0,0,0,0,0a.09.09,0,0,0,.08.1,0,0,0,0,1,0-.06A.83.83,0,0,1,50,40a1.34,1.34,0,0,0,.58.64,1.67,1.67,0,0,0-.41.38c-.1.09-.24.2-.33.15a1.2,1.2,0,0,1-.1-.11.16.16,0,0,0-.11,0l-.06,0a.17.17,0,0,0-.18.05.18.18,0,0,1,.12,0v.07s0,.08.21.08h0a.11.11,0,0,1-.1,0c-.08,0-.12-.09-.18,0l0,.05h0c-.06,0-.13.16,0,.22a.14.14,0,0,1,0-.11l0,0c.05.08.11.12.23-.05,0,0,0,0,0,0s-.1.2,0,.22h0v0a.16.16,0,0,0,.2.1.22.22,0,0,1-.11-.12h0c.07-.06,0-.14,0-.19s0,0,0,0a.12.12,0,0,0,.17.07.15.15,0,0,0,.07-.12.49.49,0,0,1,.32-.06c0-.06.06-.15.18-.19s.19,0,.23,0A.74.74,0,0,1,51,41c0,.52.67.5.83.81a1.08,1.08,0,0,0-.56-.11c-.17,0-.47.19-.51.38a.72.72,0,0,0,.3.55c-.2,0-.27,0-.45,0h0c-.15,0-.18-.26-.37-.19a.09.09,0,0,0,0,0c-.07,0-.18.08-.15.16a.25.25,0,0,1,.12-.07.1.1,0,0,0,0,0s0,.06.07.06h.07s0,0,0,0-.22,0-.18.15a.17.17,0,0,0,0,.06c0,.06,0,.12.15.09s-.06-.05,0-.08h0s0,0,0,0h0s0,0,0,0V43a.12.12,0,0,0,.2.07s-.1,0-.1,0l0,0a.07.07,0,0,0,0-.06s0,0,0,0h0s0,0,0,0a.13.13,0,0,0,.14.06.15.15,0,0,0,.07-.05.18.18,0,0,1,.08.05c0-.08,0-.14.2,0l.11-.09s.15.07.21,0,0-.1,0-.18-.11-.14-.15-.29.31-.39.51-.35a1.21,1.21,0,0,0,.65.72c.24.07.33-.18.41-.15s0,0,0,.07a1.58,1.58,0,0,1,0,.28c0,.06-.15,0-.24,0a.14.14,0,0,0-.09,0c-.07,0-.16.08-.16.17a.26.26,0,0,1,.14-.07v0a.1.1,0,0,0,.18.07s0,0,0,0-.16.14-.07.18l.05,0a.12.12,0,0,0,.09.13s0,0,0-.12h0c.06,0,0-.12.11-.16s0,0,0,0,0,.15,0,.17l.05,0a.12.12,0,0,0,.18.05s-.07,0-.08-.06l.05-.06c0-.16-.09-.16-.09-.22s.15,0,.15-.18v0c.08,0,.15-.08.16-.14a.33.33,0,0,1-.19,0Z"
         id="path3186" />
      <path
         class="cls-2"
         d="M45.65,47.36h-.11a.27.27,0,0,0-.32.22.28.28,0,0,0,.27.3h.09s0,.07,0,.12c0,.25-.1.66-.17,1.15l-1.26-1.8a6.71,6.71,0,0,1,1.31-.49c.21,0,.25.1.21.5m-.48,3.13-2-2.84a3.87,3.87,0,0,0,.63-.19l1.5,2.13-.15.9M45,51.77l-2.81-4h.26a3,3,0,0,0,.43,0l2.25,3.23c-.05.31-.1.59-.13.83m-3.17-4,3.08,4.42a4.37,4.37,0,0,1-3.08-4.42m4.57-.35h-.14v-.13a.76.76,0,0,0-.8-.86,13.28,13.28,0,0,1-2.66.61,3.47,3.47,0,0,1-1.59-.5l-.17.38s0,0,0,0a.32.32,0,1,0-.32.32.33.33,0,0,0,.25-.12l-.17.38.18.07a5.23,5.23,0,0,0,3.77,5.16c.37-.1.76,0,.76.36a.31.31,0,0,1-.36.36c-.15,0-.24-.08-.24-.19s.29-.06.32-.18-.06-.22-.23-.22a.41.41,0,0,0-.44.4.54.54,0,0,0,.57.56.74.74,0,0,0,.79-.85c.13,0,.29,0,.33-.14l0-.4-.13,0,.1-4.43h.1a.26.26,0,0,0,.32-.23c0-.19-.13-.26-.27-.28"
         id="path3188" />
      <path
         class="cls-2"
         d="M44.13,38.05s0-.06,0-.06a.05.05,0,0,0,.06,0s0-.05-.05-.08.05,0,0,0-.06,0-.08,0l0,0s0,0,.05,0l.16.07s0,0,0,0,0,0,0,.06,0-.05-.05-.06,0,0,0,.06-.07,0-.09,0a.05.05,0,0,0,0,.08.12.12,0,0,1,0,.08s-.06.09-.12.06a.09.09,0,0,1,0-.13m.19-.41s-.09.09-.13,0,0-.06,0-.14a.4.4,0,0,0,.17.09m.12.07a.57.57,0,0,0,.19.08c-.08,0-.06.05-.12.05s-.09-.08-.07-.13m-.43.11h0m1.83.67c.6,0,.89-.19.89-.38,0-.67-1.65-.25-1.65-.66a.23.23,0,0,1,.13-.18h0c.83-.07.84-.65,1.43-.76-.71-.1-.81.46-1.11.48a.36.36,0,0,0,.2-.34c-.14.19-.46.21-.64.43a.15.15,0,0,0,0,.12.3.3,0,0,0-.17.24c0,.63,1.67.2,1.67.66,0,.16-.29.27-.75.27s-.59-.25-1.23-.09c0-.1.21-.3.13-.4a.16.16,0,0,0,.11-.13.23.23,0,0,0-.12-.06s0-.06,0-.08,0-.08,0-.09a.33.33,0,0,0-.14-.1.61.61,0,0,0-.15-.05l-.09,0s-.08,0-.08,0a.25.25,0,0,0-.13-.05.27.27,0,0,0,0,.18c-.06,0-.12.16-.18.14s0,.07.06.07-.07.2-.13.2l0,0a2.61,2.61,0,0,0-.08.38h0a.75.75,0,0,0-.13-.11c-.1-.05-.09-.1-.07-.19s.07-.16.07-.23,0-.06,0-.08a.13.13,0,0,0-.13-.09.11.11,0,0,1,0,.09l0,0a.06.06,0,0,0,0,.08s0,0,0,0l0,0h0c0-.06,0-.15-.09-.15H43.3s0,0,0,0-.06-.11-.16,0a.1.1,0,0,1,.07,0,.15.15,0,0,0,0,.06c0,.07,0,.09.1.09h0v0h0c-.11,0-.17,0-.19.05v0s-.07.08,0,.13,0-.06.05-.07h0l0,0,.07,0h0l0,0s0,0,0,0-.09.14,0,.16,0,0,0,0a.1.1,0,1,1-.2,0c-.12.14,0,.27.2.19h0a0,0,0,0,0,0,0s0,0,0,0,0,0,0,0,0,.09.06.09,0,0,0,0,.07.11.15.2a1.35,1.35,0,0,1-.37.12.73.73,0,0,0-.29,0c-.09,0-.32.13-.39,0s0-.06,0-.11,0-.06-.07-.06h0a.15.15,0,0,0-.17,0s.07,0,.09.06,0,0,0,.05,0,.08.14.13,0,0,0,0a.11.11,0,0,1-.07,0c-.07,0-.07-.11-.14-.07l0,0h0c-.07,0-.17.07-.12.15a.1.1,0,0,1,.08-.07.43.43,0,0,0,0,.05c0,.07.05.13.2,0s0,0,0,0-.13.13,0,.18l0,0h0a.13.13,0,0,0,.13.14.17.17,0,0,1,0-.12h0c.07,0,0-.12.08-.15s0,0,0,0,0,.12.11.11a.13.13,0,0,0,.12-.12s0,0,0,0a.09.09,0,0,1,.05.1.22.22,0,0,0,.06-.07.13.13,0,0,1,0,.15.19.19,0,0,0,.14-.15l0,.05h0a.29.29,0,0,0,.18,0h0s0,.07,0,.09l0,0s0,.08,0,.14c0-.22.14-.14.28-.23s0,0,0,0,0,0-.07.07.17-.05.17-.13l.1-.08a.13.13,0,0,0,.15-.07s0,.09,0,.11c.14,0,.3-.16.36-.17.31-.07-.2-.29.44-.26a.33.33,0,0,0,.19-.06c0,.09,0,.29.05.3a.33.33,0,0,1,.16.07s0,0,0,0l-.14,0c-.15.1-.16-.22-.32-.16l0,0c-.07,0-.16.08-.15.14a.17.17,0,0,1,.11-.06v0s0,0,.06,0h.07c0,.06-.19,0-.15.13,0,0,0,0,0,0s0,.1.12.08,0,0,0-.06h0s0,0,0,0h0l0,0s0,0,0,0a.17.17,0,0,0,0,.05c0,.06.08.12.17.06a.11.11,0,0,1-.09,0h0s0,0,0-.06h.06s0,0,0,0a.11.11,0,0,0,.12,0c.11,0,0-.13.1-.15h.07c.08,0,.21,0,.23,0a.23.23,0,0,0-.08-.24s0-.09,0-.17a.75.75,0,0,0,.32.08c.23,0,0,0,.12-.1a.39.39,0,0,1,.27,0s.06,0,0,.06,0,.13,0,.18-.12,0-.18,0-.07,0-.07,0a.14.14,0,0,0-.13.13.19.19,0,0,1,.1,0v0a.1.1,0,0,0,.16.06s0,0,0,0-.12.11,0,.14l0,0a.12.12,0,0,0,.08.11s0,0,0-.1h0c.05,0,0-.1.09-.13h0c0,.07,0,.14,0,.15h0a.08.08,0,0,0,.13,0s-.05,0-.05-.05l0,0c0-.13-.07-.13-.07-.17s.12,0,.12-.15a.09.09,0,0,0-.05-.08h0s.06,0,.09,0-.07-.08-.08-.13v0a.15.15,0,0,0,0-.12s-.14.08-.14,0,0-.07-.1,0-.23-.07-.52-.09c0,0,0,0,0,0"
         id="path3190" />
      <path
         class="cls-2"
         d="M43.13,41.65h0m-.48-1s0-.08.05-.08.07,0,.08,0,0-.06-.07-.09.07,0,0-.06-.07,0-.08,0,0,0,0,0,0,0,.06,0l.18.09s0,0,0,.05,0,0,0,.06,0-.06-.05-.06,0,0,0,.07-.08,0-.1,0a.08.08,0,0,0,0,.1s0,.05,0,.09-.07.11-.14.06a.1.1,0,0,1,0-.14m.22-.48c0,.05-.09.1-.15.05s0-.07-.06-.16a.71.71,0,0,0,.21.11m.14.08a1.1,1.1,0,0,0,.23.09c-.11,0-.08.06-.15.06s-.09-.09-.08-.15m-.94.83h0m4.6-.33c0-.18-.21-.3-.79-.3S44,40.65,44,40.32c0-.17.25-.15.57-.13a.22.22,0,0,0,.12.07c.76.22,1.65-.18,2.11,0-.54-.41-1,0-1.57-.11.34,0,.46-.09.47-.19-.26.17-.76-.08-1.06.11a.1.1,0,0,0,0,0c-.42,0-.75,0-.75.26,0,.59,1.57.25,2.06.25s.6,0,.6.14-.49.18-.77.18a12.13,12.13,0,0,0-2.5-.07c.07-.13.21-.3.13-.39a.21.21,0,0,0,.13-.15l-.14-.06s0-.07,0-.11a.54.54,0,0,0,0-.1.71.71,0,0,0-.17-.11.88.88,0,0,0-.19,0s-.09,0-.1,0-.09,0-.1,0a.22.22,0,0,0-.13-.06.24.24,0,0,0,0,.21c-.07,0-.15.18-.22.16a.19.19,0,0,0,.07.08c-.05.1-.08.22-.15.22a.22.22,0,0,0,.1.1c0,.07,0,.15,0,.22l-.12-.05h0l0,0,0,0-.07,0a2.11,2.11,0,0,0-.26-.22c-.11-.07-.11-.12-.11-.24s.06-.2.06-.29,0-.07,0-.1-.09-.11-.15-.1a.12.12,0,0,1,.06.1l0,.06a.09.09,0,0,0,0,.11s0,0,0,0l0,0h0c0-.07-.06-.18-.12-.18h0v0c0-.08-.08-.13-.17,0s.06,0,.07,0a.31.31,0,0,0,0,.08c0,.07,0,.09.13.1a0,0,0,0,1,0,0s0,0,0,0,0,0,0,0-.18,0-.19.06v.05s-.06.11,0,.17,0-.08,0-.09h0l0,0s0,0,.08,0h0l0,0s0,0,0,0-.08.17,0,.19l0,0a.11.11,0,1,1-.22,0c-.13.2.08.34.24.25,0,0,0,0,0,0s0,0,0,.06a0,0,0,0,1,0,0s0,0,0,0,0,.1.07.11,0-.07,0-.07.1.13.23.21.19.16.26.09c0,.11.09.24.07.24a1.48,1.48,0,0,0-.41,0c-.12.06-.38.16-.46.05s0-.08-.06-.14a.15.15,0,0,0-.09-.07h-.06a.15.15,0,0,0-.18,0,.14.14,0,0,1,.1.07l0,.05s0,.09.16.16c0,0,0,0,0,0a.08.08,0,0,1-.09,0c-.07-.05-.08-.13-.16-.09a.11.11,0,0,1-.06,0h0c-.08,0-.19.08-.14.17s0-.06.09-.08,0,.05,0,.06,0,.16.23,0c0,0,0,0,0,0s-.15.15-.06.22l0,0h0a.16.16,0,0,0,.14.18.17.17,0,0,1,0-.15h0c.09,0,0-.15.1-.17h0s0,.14.13.14.15-.1.14-.15,0,0,0,0a.11.11,0,0,1,0,.11s.05,0,.07-.07a.15.15,0,0,1,0,.17.23.23,0,0,0,.16-.17l0,.06h0a.32.32,0,0,0,.2,0s0,0,0,0a.11.11,0,0,0,0,.1s0-.05,0-.05,0,.1.06.16c0-.26.16-.16.33-.27,0,0,0,0,0,0a.13.13,0,0,1-.07.08c.18.05.47-.23.51-.35a1.23,1.23,0,0,1,.17,0c.51,0,.16-.46,1-.32a.36.36,0,0,0,.21-.09c-.07.11-.07.33.05.35a.48.48,0,0,1,.19.09s0,0,0,0a.37.37,0,0,0-.15.05c-.18.11-.18-.27-.37-.2l0,0c-.07,0-.18.08-.16.16a.22.22,0,0,1,.12-.06v0s0,.06.07.06l.07,0s0,0,0,0-.24,0-.2.15l0,.06c0,.06,0,.12.14.09s-.06,0-.05-.07h.05s0,0,0,0h0s0,0,0,0,0,0,0,0a.21.21,0,0,0,0,.06c0,.07.09.15.2.08s-.1,0-.11-.06a.08.08,0,0,0,0,0s0,0,0-.07h.1a.1.1,0,0,0,.14.07c.13,0,0-.15.12-.18h.07c.1,0,.25,0,.28,0a.26.26,0,0,0-.1-.29c-.06,0,0-.11,0-.2a.84.84,0,0,0,.37.09.68.68,0,0,0,.45-.11.44.44,0,0,1,.33,0s.06,0,.05.06,0,.16,0,.22-.15,0-.22,0a.1.1,0,0,0-.09,0c-.06,0-.14.08-.13.15a.33.33,0,0,1,.12-.06v0a.09.09,0,0,0,.17.06s0,0,0,0S46,42,46.06,42s0,0,0,0a.12.12,0,0,0,.09.13s0,0,0-.12h0c.06,0,0-.11.1-.15h0c0,.07,0,.15,0,.17h0a.12.12,0,0,0,.17.06s-.06,0-.07-.07,0,0,0-.06-.09-.14-.09-.2.15,0,.15-.17a.09.09,0,0,0-.06-.09,0,0,0,0,1,0,0h0s.08,0,.1,0-.08-.08-.09-.13v0a.12.12,0,0,0,.05-.15c0,.05-.15.1-.17,0s0-.07-.1,0a4.72,4.72,0,0,1-.64-.05c.38,0,1-.11,1-.32"
         id="path3192" />
      <path
         class="cls-2"
         d="M42,43.23s0-.07.06-.07.06,0,.07,0,0-.07-.06-.09.06,0,0-.05S42,43,42,43a.07.07,0,0,1,0,0s0,0,.05,0l.18.08s0,0,0,.05,0,0,0,.06,0-.06-.06-.06,0,0,0,.06-.09,0-.1,0a.05.05,0,0,0,0,.08s0,0,0,.09-.07.1-.13.07a.11.11,0,0,1,0-.14m.21-.45s-.09.09-.13,0,0-.06-.06-.15a.8.8,0,0,0,.19.11m.14.07a1,1,0,0,0,.22.09c-.1,0-.08.05-.15.05s-.08-.08-.07-.14m4.09.45c0-.17-.19-.28-.75-.28s-2.28.21-2.28-.11.58-.11,1-.1c0,0,.06.06.12.08.72.2,1.48-.28,2-.1-.41-.38-.93,0-1.48-.08.32,0,.65-.07.67-.15-.24.16-.95-.11-1.24.07l-.05,0c-.53,0-1.18-.07-1.18.24,0,.57,2,.24,2.43.24s.57.05.57.13-.47.17-.73.17a13.48,13.48,0,0,0-3,0c0-.13.22-.31.14-.41s.12-.08.12-.13a.29.29,0,0,0-.14-.08s0-.06,0-.09,0-.08,0-.1a.64.64,0,0,0-.16-.1.31.31,0,0,0-.17-.05s-.09,0-.1,0-.09,0-.1,0a.26.26,0,0,0-.12-.05.23.23,0,0,0,0,.2c-.07,0-.14.17-.2.15s0,.07.06.07-.08.22-.14.23a.17.17,0,0,0,.06.06,1.11,1.11,0,0,0,0,.17l-.06,0h-.09l-.09,0c-.09,0-.15-.15-.3-.24S41,43,41,42.84s.05-.19.05-.27a.24.24,0,0,1,0-.09.17.17,0,0,0-.15-.1.1.1,0,0,1,0,.1l0,.05a.07.07,0,0,0,0,.1v0a.08.08,0,0,1,0,0s0,0,0,0-.05-.17-.12-.17h0v0c0-.07-.08-.13-.16,0s0,0,.06,0a.25.25,0,0,0,0,.08c0,.07,0,.1.13.1h0v0s0,0,0,0-.19,0-.19.06v0s-.05.1,0,.15,0-.07,0-.08h0l0,0s0,0,.07,0h0l0,0s0,0,0,0-.07.16,0,.18,0,0,0,0-.22.12-.21,0a.16.16,0,0,0,.24.22h0s0,.06,0,.06,0,0,0,0,0,0,0,0a.1.1,0,0,0,.08.1s0-.07,0-.07a1.39,1.39,0,0,0,.37.34s.1,0,.12-.06,0,0,.05.06.08.23.06.23a1.93,1.93,0,0,0-.47,0c-.11.06-.35.15-.43,0s0-.07,0-.12a.13.13,0,0,0-.09-.07h-.06a.17.17,0,0,0-.18,0,.16.16,0,0,1,.11.08s0,0,0,0,0,.09.16.15c0,0,0,0,0,0a.08.08,0,0,1-.09,0c-.06,0-.08-.12-.15-.08l0,0h0c-.07,0-.18.09-.13.18s0-.08.09-.08,0,0,0,.05,0,.15.23,0c0,0,0,0,0,0s-.15.14-.07.2l0,0v0a.14.14,0,0,0,.14.16.21.21,0,0,1-.06-.15.08.08,0,0,0,0,0c.08,0,.05-.13.1-.16s0,0,0,0,0,.13.12.12a.14.14,0,0,0,.13-.14h0a.08.08,0,0,1,0,.1.15.15,0,0,0,.07-.07.16.16,0,0,1,0,.17.24.24,0,0,0,.15-.17.21.21,0,0,1,0,.06s0,0,0,0a.23.23,0,0,0,.19,0h0a.25.25,0,0,0,0,.1s0,0,0,0,0,.1.06.16c0-.25.31-.12.47-.22,0,0,0,0,0,0a.13.13,0,0,1-.07.08.33.33,0,0,0,.21-.08l0,0,.25-.12s0-.05,0-.08a.13.13,0,0,0,.08,0h0c.16,0,.15-.12.21-.11.92.12.39-.39,1.46-.29.05,0,.07,0,.12-.06s-.05.28,0,.3a.44.44,0,0,1,.19.07,0,0,0,0,1,0,0,.43.43,0,0,0-.15,0c-.17.11-.17-.25-.35-.18l0,0c-.07,0-.17.08-.15.16a.21.21,0,0,1,.12-.08v.05s0,0,.06,0,0,0,.07,0,0,0,0,0-.22,0-.18.15c0,0,0,.05,0,.06s0,.11.13.08,0,0,0-.07h0l0,0h0s0,0,0,0,0,.05,0,.05.08.14.18.07-.08,0-.09-.05h0s0,0,0-.07,0,0,0,0h0s0,0,0,0a.12.12,0,0,0,.14.06c.12,0,0-.14.11-.17s0,0,.07,0,.24,0,.26,0a.24.24,0,0,0-.09-.27c-.06,0,0-.1,0-.19a.9.9,0,0,0,.35.09.68.68,0,0,0,.43-.11.47.47,0,0,1,.31,0,.07.07,0,0,1,.06.07c0,.13,0,.15,0,.2s-.14,0-.21,0a.07.07,0,0,0-.08,0,.15.15,0,0,0-.14.14.23.23,0,0,1,.12-.06v0a.1.1,0,0,0,.17.07,0,0,0,1,1,0,0s-.15.13-.07.16l0,0a.12.12,0,0,0,.09.11s0,0,0-.11h0c.06,0,0-.11.09-.15h0c0,.07,0,.15,0,.17h0s.07.08.15,0l-.07,0,0-.06c0-.14-.07-.14-.07-.19s.13,0,.13-.17a.08.08,0,0,0-.06-.08h0s.08,0,.1,0-.07-.08-.09-.14,0,0,0,0a.14.14,0,0,0,0-.15s-.14.1-.15,0,0-.08-.11-.06a3.21,3.21,0,0,1-.61,0c.32,0,.91-.08.91-.3"
         id="path3194" />
      <path
         class="cls-2"
         d="M50.72,47.81h0m-.83-1.3h0m0,.19ZM50,47s0-.07.06-.07a.05.05,0,0,0,.07,0s0-.06-.06-.09.06,0,0,0-.07,0-.07,0,0,0,0,0,0,0,0,0l.18.07s0,0,0,.05,0,.06,0,.06,0-.05,0-.06,0,0,0,.07-.08,0-.1,0,0,.06,0,.09,0,.05,0,.09a.11.11,0,0,1-.13.07A.11.11,0,0,1,50,47m.21-.45c0,.06-.09.1-.14,0s0-.06-.05-.15a.88.88,0,0,0,.19.1m.13.07a.91.91,0,0,0,.22.09c-.1,0-.07.06-.13.06s-.09-.09-.09-.15m4,1v0a.14.14,0,0,0,.06-.15c0,.05-.15.11-.15,0s0-.07-.1-.05a3.68,3.68,0,0,1-.66,0s0,0,0,0c.32,0,.91-.07.91-.28s-.19-.28-.75-.28-2.28.2-2.28-.11.58-.12,1-.1a.24.24,0,0,0,.13.07c.71.21,1.54-.33,2-.21-.57-.19-.92.15-1.47,0,.32,0,.66-.07.67-.16-.24.16-.94-.11-1.24.08l0,0c-.52,0-1.17-.06-1.17.25,0,.56,2,.24,2.42.24s.58,0,.58.13-.47.17-.73.17a12.91,12.91,0,0,0-3,0c0-.13.22-.31.13-.41a.17.17,0,0,0,.12-.14.21.21,0,0,0-.14-.07s0-.07,0-.09a.26.26,0,0,0,0-.1.61.61,0,0,0-.16-.11.41.41,0,0,0-.17,0l-.1,0s-.09,0-.1,0a.2.2,0,0,0-.12-.06.23.23,0,0,0,0,.2c-.07,0-.14.17-.2.15s0,.07.06.08-.08.21-.14.22.07.08.09.08a1,1,0,0,0,0,.17l-.1,0H49.5l-.08,0c-.1,0-.17-.15-.32-.23a.23.23,0,0,1-.11-.24c0-.1,0-.18,0-.27a.37.37,0,0,0,0-.09.16.16,0,0,0-.15-.09.13.13,0,0,1,.06.09l-.05.06a.08.08,0,0,0,0,.09v.07s0,0,0,0,0-.17-.11-.18h0v0c0-.06-.08-.12-.16,0a.07.07,0,0,1,.07,0,.25.25,0,0,0,0,.07c0,.07,0,.1.12.1s0,0,0,0,0,0,0,0h0c-.12-.05-.17,0-.18.06s0,0,0,0-.06.1,0,.16a.08.08,0,0,1,0-.09h0l0,0s0,0,.07,0h0a.07.07,0,0,0,0,0v0c-.1.09-.08.16,0,.19s0,0,0,0c0,.16-.22.12-.2,0-.12.18.08.32.24.23h0s0,.06.06.06,0,0,0,0v0s0,.1.08.1,0-.06,0-.06.14.24.37.36c0,0,.08,0,.13-.09a.19.19,0,0,0,.08.11l0,0c0,.1.12.22.09.22a1.13,1.13,0,0,0-.32,0c-.1.06-.36.15-.44.05a.69.69,0,0,0,0-.13.12.12,0,0,0-.09-.07h0a.15.15,0,0,0-.18,0,.15.15,0,0,1,.1.07l0,.05s0,.09.16.15c0,0,0,0,0,0a.06.06,0,0,1-.08,0c-.07,0-.08-.11-.16-.07a.08.08,0,0,1-.05,0h0c-.07,0-.18.08-.14.17a.15.15,0,0,1,.09-.08.17.17,0,0,1,0,.05c0,.09.05.15.22,0s0,0,0,0-.15.14-.06.2l0,0h0a.14.14,0,0,0,.14.16.2.2,0,0,1-.06-.14h.06c.08,0,0-.13.09-.16s0,0,0,0,0,.13.12.12a.11.11,0,0,0,.12-.14h0a.09.09,0,0,1,.05.1.15.15,0,0,0,.07-.07.17.17,0,0,1,0,.17.22.22,0,0,0,.15-.17l0,.06h0a.32.32,0,0,0,.2,0h0a.11.11,0,0,0,0,.1s0,0,0,0,0,.09.06.16c0-.25.15-.16.3-.25s0,0,0,0a.13.13,0,0,1-.07.08c.06,0,.29-.1.29-.19s.08,0,.16,0,.13-.12.2-.12c.91.13.39-.39,1.46-.28.06,0,.08-.06.12-.1s0,.31.06.33a.48.48,0,0,1,.18.08,0,0,0,0,1,0,0,.4.4,0,0,0-.16,0c-.16.11-.17-.25-.35-.19l-.05,0a.17.17,0,0,0-.15.16.27.27,0,0,1,.12-.07v0s0,0,.06,0h.07s0,0,0,0-.22,0-.18.14l0,.07c0,.05,0,.1.14.08s-.06,0-.05-.07h0s0,0,0,0h0s0,0,0,0a.21.21,0,0,0,0,.06.1.1,0,0,0,.18.06s-.08,0-.09,0l0,0s0,0,0-.07,0,0,0,0h0s0,0,0,0a.11.11,0,0,0,.14,0c.12,0,0-.14.12-.16a.16.16,0,0,1,.07,0c.09,0,.23,0,.25,0a.24.24,0,0,0-.09-.27c-.06,0,0-.1-.05-.19a.75.75,0,0,0,.35.09.73.73,0,0,0,.46-.11.45.45,0,0,1,.31,0s.06,0,0,.07,0,.14,0,.2-.13,0-.21,0a.1.1,0,0,0-.08,0,.19.19,0,0,0-.15.14.67.67,0,0,1,.12-.06v0a.09.09,0,0,0,.16.06s0,0,0,0-.16.13-.08.16l0,0a.13.13,0,0,0,.07.12s0,0,0-.11h0c.06,0,0-.11.1-.15h0c0,.07,0,.15,0,.17h0s.07.09.15,0a.19.19,0,0,1-.07-.06.12.12,0,0,0,0-.06c.05-.14-.06-.14,0-.19s.13,0,.14-.17,0-.06,0-.07v0s.08,0,.11,0-.07-.08-.08-.14"
         id="path3196" />
      <path
         class="cls-2"
         d="M50.32,49.19c-.06,0-.08-.08-.07-.14a1.61,1.61,0,0,0,.21.09c-.1,0-.08,0-.14,0m-.09.12s0-.05,0-.05,0,0,0,.05-.08,0-.1,0,0,0,0,.09,0,0,0,.07a.09.09,0,0,1-.13.07.11.11,0,0,1,0-.14s0-.06,0-.06a.05.05,0,0,0,.07,0c0-.05,0-.06-.06-.09s.06,0,0,0-.06,0-.07,0,0,0,0,0,0,0,0,0l.17.08a0,0,0,0,1,0,0s0,0,0,.05M50.12,49s-.08.08-.13,0,0-.06-.05-.15l.18.11m1.74,0s0,.07.12.09c.69.2,1.47-.31,1.89-.19-.54-.2-.88.13-1.4,0,.3,0,.62-.06.64-.14-.24.15-.91-.1-1.18.07l0,0c-.38,0-.68,0-.68.24,0,.54,1.42.22,1.87.22s.39,0,.39.13-.51.16-.76.16a11.35,11.35,0,0,0-2.26-.06c.06-.11.19-.26.12-.35a.16.16,0,0,0,.1-.13.21.21,0,0,0-.13-.07s0-.06,0-.09,0-.08,0-.09a.61.61,0,0,0-.15-.1.64.64,0,0,0-.16,0s-.08,0-.1,0-.08,0-.08.05a.23.23,0,0,0-.12-.06.24.24,0,0,0,0,.19c-.06,0-.12.17-.18.15a.07.07,0,0,0,.06.06c-.06.1-.08.22-.14.22a.17.17,0,0,0,.06.06.79.79,0,0,0,0,.2l-.06,0h0a.51.51,0,0,1-.28-.09c-.1,0-.1-.11-.1-.22a2.3,2.3,0,0,0,0-.26.31.31,0,0,0,0-.08.16.16,0,0,0-.15-.09.13.13,0,0,1,.07.09l0,0a.08.08,0,0,0,0,.1s0,0,0,0a.1.1,0,0,1,0,0h0c0-.07,0-.17-.11-.17h0a0,0,0,0,0,0,0c0-.07-.08-.12-.16,0l.07,0,0,.07c0,.07.05.1.12.1h0v0s0,0,0,0-.17,0-.17.06a.08.08,0,0,0,0,0s-.06.09,0,.14,0-.06,0-.07l0,0,0,0s0,0,.07,0,0,0,0,0l0,0h0c-.09.08-.07.17,0,.18s0,0,0,0-.21.12-.2,0c-.11.17.09.3.23.21h0s0,.06,0,.06a0,0,0,0,1,0,0s0,0,0,0a.14.14,0,0,0,.07.1s0-.07,0-.07,0-.06.21,0a.16.16,0,0,0,.07.07l.14,0c0,.1,0,.25,0,.25a.85.85,0,0,0-.31,0c-.1.05-.34.15-.42,0a1,1,0,0,0,0-.12.1.1,0,0,0-.07-.06h-.06a.16.16,0,0,0-.17,0,.14.14,0,0,1,.09.07.11.11,0,0,0,0,0s0,.08.14.13,0,0,0,0a.08.08,0,0,1-.09,0c-.05,0-.06-.12-.13-.07l-.06,0a0,0,0,0,0,0,0c-.07,0-.17.09-.13.16a.14.14,0,0,1,.09-.07.43.43,0,0,0,0,0c0,.08.05.14.21,0s0,0,0,0-.15.14-.07.2l0,0v0a.15.15,0,0,0,.14.15.14.14,0,0,1-.05-.14l.05,0c.07,0,0-.13.08-.16s0,0,0,0,0,.13.12.12a.13.13,0,0,0,.12-.14h0a.09.09,0,0,1,0,.1.15.15,0,0,0,.07-.07.14.14,0,0,1,0,.17.22.22,0,0,0,.15-.17l0,.05h0a.34.34,0,0,0,.18,0s0,0,0,0a.15.15,0,0,0,0,.1s0,0,0,0,0,.09,0,.14c0-.23.22-.17.36-.27s0,0,0,0a.24.24,0,0,1-.06.08c.15.1.31-.12.36-.24l0,0a.06.06,0,0,1,0,.07c.15,0,.13-.12.2-.11.46,0,.1-.39.85-.26a.37.37,0,0,0,.18-.08c0,.09,0,.3,0,.32s.15,0,.18.07,0,0,0,0a.38.38,0,0,0-.14,0c-.15.1-.16-.24-.33-.18,0,0,0,0,0,0s-.17.08-.15.15a.19.19,0,0,1,.11-.06s0,0,0,0,0,.05.07.05l.06,0s0,0,0,0-.2,0-.17.14c0,0,0,0,0,0s0,.12.13.08-.05,0-.05-.06h.05a0,0,0,0,0,0,0h0s0,0,0,0a.14.14,0,0,0,0,.06c0,.06.08.13.18.07s-.09,0-.1-.05l.05,0s0,0,0-.07h.07s0,0,0,0a.1.1,0,0,0,.13,0c.12,0,0-.14.11-.15H52c.08,0,.22,0,.24,0a.23.23,0,0,0-.08-.26c-.06,0,0-.1,0-.18a.67.67,0,0,0,.33.08.88.88,0,0,0,.48-.1.49.49,0,0,1,.3,0s.06,0,0,.07,0,.13-.06.19-.13,0-.2,0a.08.08,0,0,0-.08,0c-.07,0-.16.07-.16.14a.2.2,0,0,1,.12-.06v0c0,.08.08.11.14,0s0,0,0,0-.17.12-.1.16l0,0s0,.11,0,.11,0-.05,0-.1h0c.06,0,.06-.11.13-.14h0c0,.07-.06.14,0,.16h0s.05.08.14,0-.06,0-.06,0l.06-.06c.07-.14,0-.14,0-.19s.13,0,.17-.15a.07.07,0,0,0,0-.09h0s.07,0,.11,0,0-.07,0-.12a0,0,0,0,1,0,0,.14.14,0,0,0,.08-.13s-.16.09-.15,0,0-.07-.09,0-.4,0-.7-.05c0,0,0,0,0,0,.3,0,.93-.07.93-.27s0-.27-.56-.27-1.74.2-1.74-.1.23-.13.52-.12"
         id="path3198" />
      <path
         class="cls-2"
         d="M49.69,51.9s0-.06.06-.06a.08.08,0,0,0,.07,0s0-.06-.06-.08.06,0,0,0-.06,0-.06,0,0,0,0-.05h.05l.15.08s0,0,0,0,0,0,0,.06,0,0-.05-.06,0,0,0,.06-.08,0-.1,0a.07.07,0,0,0,0,.08s0,0,0,.07-.05.1-.11.06a.09.09,0,0,1,0-.12m.2-.41s-.09.08-.13,0,0-.06,0-.13a.56.56,0,0,0,.17.09m.12.06a.55.55,0,0,0,.2.08c-.1,0-.07.06-.13,0S50,51.6,50,51.55m1.28-.06a.2.2,0,0,0,.13.1c.68.19,1.46-.32,1.89-.21-.55-.19-.89.14-1.41,0,.31,0,.63-.06.64-.14-.23.15-.9-.11-1.18.07a.12.12,0,0,0,0,0c-.21,0-.39.16-.39.31,0,.46,1.75.1,1.75.25s-.34.23-.8.23a5.1,5.1,0,0,0-1.72,0h0c.06-.12.22-.32.14-.4a.19.19,0,0,0,.12-.13.38.38,0,0,0-.13-.06s0-.06,0-.09,0-.07,0-.08a.42.42,0,0,0-.15-.1.59.59,0,0,0-.14-.05l-.1,0s-.08,0-.08,0a.33.33,0,0,0-.12-.05.25.25,0,0,0,0,.19c-.06,0-.13.16-.19.13s0,.07.06.07-.07.2-.13.2l.07.07a1,1,0,0,0,0,.42c-.11-.11-.27-.37-.38-.42a.21.21,0,0,1-.1-.22,2,2,0,0,0,0-.24.31.31,0,0,0,0-.08c0-.06-.09-.09-.13-.09a.11.11,0,0,1,.05.09l0,0s0,0,0,.08v.06s0,0,0,0,0-.15-.1-.16h0c0-.06-.07-.11-.15,0a.07.07,0,0,1,.06,0,.25.25,0,0,0,0,.07c0,.06.05.09.12.09s0,0,0,0a0,0,0,0,1,0,0s0,0,0,0-.16,0-.17,0a.11.11,0,0,0,0,0c-.05,0-.06.08,0,.13s0-.06,0-.07h0l0,0s0,0,.07,0h0a.05.05,0,0,0,0,0v0c-.08.08-.06.15,0,.17s0,0,0,0-.2.11-.18,0c-.11.16.08.29.21.21s0,0,0,0,0,0,0,0a0,0,0,0,1,0,0s0,0,0,0a.08.08,0,0,0,.07.09s0-.06,0-.06,0,.22.2.35a.25.25,0,0,0,.25.17c0,.08.09.16.07.16a1.32,1.32,0,0,0-.34,0A.48.48,0,0,1,49,53v0a.15.15,0,0,1-.16,0s0-.06,0-.12,0-.06-.07-.06h-.06a.16.16,0,0,0-.16,0,.12.12,0,0,1,.09.06l0,.05s0,.08.13.13,0,0,0,0a.1.1,0,0,1-.09,0c-.05-.05-.06-.12-.13-.07l0,0h0c-.06,0-.16.08-.11.16a.11.11,0,0,1,.08-.08.43.43,0,0,0,0,.05c0,.08.05.14.2,0s0,0,0,0-.14.12-.06.17l0,0h0a.14.14,0,0,0,.13.15.12.12,0,0,1,0-.13s0,0,0,0,0-.12.08-.15,0,0,0,0,0,.12.11.12A.14.14,0,0,0,49,53.2h0a.09.09,0,0,1,.05.09.09.09,0,0,0,.06-.06.13.13,0,0,1,0,.15.22.22,0,0,0,.15-.14.08.08,0,0,1,0,.05h0a.39.39,0,0,0,.18,0s0,0,0,0a.19.19,0,0,0,0,.08s0,0,0,0,0,.09,0,.13c0-.22.14-.13.28-.22s0,0,0,0a.13.13,0,0,1-.06.07c.06,0,.21-.07.21-.15a1,1,0,0,0,.13-.38h.06c.19,0,.27-.15.46-.16a.54.54,0,0,0-.06.27c0,.1.13.21.17.24s0,0,0,0l-.15,0c-.15.1-.15-.22-.31-.16l0,0c-.07,0-.16.08-.14.14s0,0,.1,0v0a.05.05,0,0,0,.06.06s0,0,.06,0,0,0,0,0-.2,0-.17.14l0,0s0,.09.13.07-.06,0,0-.07h0l0,0h0s0,0,0,0a0,0,0,0,0,0,0s0,0,0,.05.08.12.17.06-.08,0-.08,0l0,0a.11.11,0,0,0,0-.06s0,0,0,0h.05l0,0a.1.1,0,0,0,.12,0c.1,0,0-.13.1-.15h.07c.08,0,.15,0,.17,0a.23.23,0,0,0-.08-.24s.08-.36-.18-.52c.12,0,.51.08.58,0a.62.62,0,0,1,.26.12s0,.06,0,.07-.09.1-.15.13h0s-.07-.09-.1-.1-.08,0-.09,0a.13.13,0,0,0-.16.06.23.23,0,0,1,.12,0v0s0,0,0,.06a0,0,0,0,1,0,0s0,0,0,0-.17,0-.14,0,0,0,0,0a.11.11,0,0,0,0,.14s0,0,.07-.07,0,0,0,0,.09-.06.15,0,0,0,0,0-.11.06-.09.11,0,0,0,0,0,.1.07.12,0-.05,0-.07h.06c.11-.07,0-.14.08-.17s.1.07.19,0a.09.09,0,0,0,0-.09s0,0,0,0,0,.06.09,0,0-.09,0-.13,0,0,0,0,.08,0,.13-.07-.18-.07-.11-.1.15-.11.1-.17-.29-.13-.3-.27h.18c.59,0,1-.16.95-.34,0-.41-1.79,0-1.79-.27,0-.08.12-.15.25-.2"
         id="path3200" />
      <path
         class="cls-2"
         d="M22.59,20.61a.44.44,0,0,0-.44-.44.43.43,0,0,0-.42.44.42.42,0,0,0,.42.42.43.43,0,0,0,.44-.42"
         id="path3202" />
      <path
         class="cls-2"
         d="M22.44,19.46a.43.43,0,1,0-.86,0,.42.42,0,0,0,.42.43.43.43,0,0,0,.44-.43"
         id="path3204" />
      <path
         class="cls-2"
         d="M22.68,19a.42.42,0,0,0,.43-.42.44.44,0,0,0-.43-.44.44.44,0,0,0-.43.44.43.43,0,0,0,.43.42"
         id="path3206" />
      <path
         class="cls-2"
         d="M23.82,18.88a.43.43,0,1,0,0-.86.43.43,0,0,0,0,.86"
         id="path3208" />
      <path
         class="cls-2"
         d="M28.71,18.08a.43.43,0,0,0,.61,0,.43.43,0,0,0-.61-.61.41.41,0,0,0,0,.61"
         id="path3210" />
      <path
         class="cls-2"
         d="M28.61,17.17a.43.43,0,1,0-.61,0,.43.43,0,0,0,.61,0"
         id="path3212" />
      <path
         class="cls-2"
         d="M27.47,17a.43.43,0,0,0-.61-.61.45.45,0,0,0,0,.61.43.43,0,0,0,.61,0"
         id="path3214" />
      <path
         class="cls-2"
         d="M26.5,17.7a.43.43,0,0,0,0-.6.43.43,0,0,0-.61,0,.42.42,0,0,0,0,.6.41.41,0,0,0,.61,0"
         id="path3216" />
      <path
         class="cls-2"
         d="M23.76,17.11l.35.76.43-.53.05,0c0,.25.06.69.06.93a.55.55,0,0,0,.54.56.55.55,0,0,0,.26-1,4.14,4.14,0,0,1-.61-.56.15.15,0,0,0,0-.07l.73.06-.29-.77-.54.47,0,0,0-.79-.76.28.51.6s0,0,0,.06Z"
         id="path3218" />
      <path
         class="cls-2"
         d="M28.73,18.45A1.05,1.05,0,0,1,29,19a1.31,1.31,0,0,1-.44-.41l.08,1a1,1,0,0,1,.36-.37c0,.66-.29.93-.51,1a.43.43,0,0,1-.52-.33c-.05-.3.2-.47.45-.22.05-.59-.43-.59-.64-.33a.89.89,0,0,0-.37-1.28.93.93,0,0,0,.22,1.31c-.39-.2-.75.14-.39.58.07-.38.4-.3.48,0s-.19.6-.61.74c-.62.18-.82-.22-1-.55a.83.83,0,0,1,.8.17l-.29-1A1,1,0,0,1,26,20a3,3,0,0,1,.19-.86L25,19.58a3,3,0,0,1,.74.48,1,1,0,0,1-.84,0l.47.91c.09-.41.3-.66.46-.68.12.34.26.76-.31,1-.4.21-.82.15-.95-.09s0-.57.34-.35c-.06-.57-.55-.56-.69-.13a.94.94,0,0,0-.76-1.1.89.89,0,0,0,.63,1.18c-.32-.05-.68.29-.22.69,0-.37.3-.42.46-.17a.42.42,0,0,1-.13.6c-.19.12-.57.11-1-.34a.87.87,0,0,1,.5,0l-.63-.78a1.2,1.2,0,0,1,0,.6,1.12,1.12,0,0,1-.24-.59l-.48.43a5.75,5.75,0,0,1,1.62,1.6,20.09,20.09,0,0,1,2.63-1.3,19.76,19.76,0,0,1,2.79-.91,5.27,5.27,0,0,1,0-2.27Z"
         id="path3220" />
      <path
         class="cls-2"
         d="M30.09,24.14c-.6.47-1.4,0-1.76-.58a18.38,18.38,0,0,0,2.43-1.12c-.6.92-.19,1.32-.67,1.7M30,30.37a1.16,1.16,0,0,1-1.52-.8c-.15-.47-.28-.85-.1-1,.34-.34.44-.59.24-1s-.73-.25-1.28-.12c.25-.45.28-.78-.07-.74s-.42.71-.65.64-.1-.47-.1-.67.19-.38.47-.51l2.24-.85c.29-.1.49-.15.69,0s.5.34.39.55-.58-.25-.9,0,0,.44.46.58c-.49.28-1,.48-.83,1s.39.54.86.55c.25,0,.43.37.64.8A1.1,1.1,0,0,1,30,30.37m-4.27-4.51c-.59.05-.58-.52-1.64-.78a17.4,17.4,0,0,0,2.53-.84c.16.69-.12,1.55-.89,1.62M38.16,45.79c.17-.46-.68-1-.78-1.64A3.25,3.25,0,0,0,36.62,42c-.74-.87-3.32-3.62-4.09-4.49a1.21,1.21,0,0,1,1.13.33c.27.25.83.78,1.34,1.28a13.77,13.77,0,0,1,2.73-4.38c.15-.18.3-.35.46-.51a6.3,6.3,0,0,0-1.52.5c0-.75,0-1.36-.49-1.84.2-1,0-2.33-2.34-3.9,1.21.29,1.93,1.38,2.86.54-.84,0-.86-1.84-3.85-3.34,1.14,0,2,1.82,3.36.78-1.25-.15-1.67-2.37-3.92-3.06.78.08,1.59.47,2.26-.44-.78.18-1.24-.53-2.08-.6a2.83,2.83,0,0,0-.1-2.3,2.84,2.84,0,0,0-1.62.58c-.07-.54-.63-.57-1.13-.53,0,.23.14.57-.11.61a21.47,21.47,0,0,0-2.78.84,14.31,14.31,0,0,0-2.56,1.38c-.21.14-.39-.2-.52-.36-.36.31-.72.71-.46,1.12a3.17,3.17,0,0,0-1.74.63,2,2,0,0,0,1.37,1.68c-1.39,1.38-.13,2.66-1.35,3.87,1.72.06,1.42-2.34,2.29-2.67-.09,1.69-1,2-1,3.8,0,1,.58,2,.06,2.67,1.44-.39,1.06-3.58,2-4.54a2.73,2.73,0,0,1-.12,1.62c-.51,1.49.05,3.52-.73,4.18,1.47-.14,1.64-2.5,2.86-3.37-1.05,2.13-2.11,6.65-3.66,8.92-2.51,3.38-4,7.51-6.29,7.51A1.7,1.7,0,0,1,15,46.58c0-3.85,6.59-6.49,6.59-10.59a2.43,2.43,0,0,0-2.41-2.52,3.36,3.36,0,0,0-2,.84,2.14,2.14,0,0,0-.77-.18c-2.33,0-1.71,4.2-3.75,4.16.81.44,2.2-.44,3-1.61-.35,2.72-4.26,2-4,5.26.55-2.55,6.78-2.18,6.78-6a1.51,1.51,0,0,0-.53-1.1,2.4,2.4,0,0,1,1.31-.41A1.47,1.47,0,0,1,20.72,36c0,3.44-6.55,6.33-6.55,10.55a2.93,2.93,0,0,0,.54,1.77A1.08,1.08,0,0,1,13.38,48c0,1.08,1.51,1.77,2.49,1.22a2.49,2.49,0,0,0,.68.14,1.88,1.88,0,0,1-1.82,1c1.61,1.26,4.41-.4,4.25-1.83,1.28-1,2.09-2.79,3-3.95l-.15.8a14,14,0,0,0-2.06,5.5c-.2,1.88-1.16,3.58-2.48,3.58-.29,0-.77-.38-1-.19-.41.35,0,.73,0,1.08,0,.53-1,1.07-1,2.72,0,.75.44,1.64.27,2.13a3.05,3.05,0,0,0,1.22-1.84c.45,2.19-.94,2.1.06,4A.81.81,0,0,1,18,61.76c.39.27.2.46-.08.75s-.56,1.74.76,1.65c-.25-.16-.26-.54.39-.68.92-.18,1.18.24,2.15.24.61,0,.77-.79,1.25-.79s.47.37.31.64c.77-.2.91-.61.91-1.06s-.36-.69-.09-.86,1.16,0,.81.74a.86.86,0,0,0,.71-1c0-.56-.64-.89-1.25-.79-.1-.35-.62-.53-1.09-.53-1.08,0-.91.85-1.65.85-1.18,0-2.33-1.54-2.33-4.12,0-1.39,1.49-1.74,2.55-2.2a9,9,0,0,0,4-3.45,8.22,8.22,0,0,0,.79-4.94,3.14,3.14,0,0,1,1.66,3,1.81,1.81,0,0,1-1.08,1.83c-.4.19-.53.11-.57.35a.48.48,0,0,0,.32.55c.53.28.43.8.57,1.35a4.3,4.3,0,0,0,1.48,2.08,5.91,5.91,0,0,0,0-1.62c1.14.57.22,2.86,2.44,2.86-.41-.24-.3-.84-.06-.92s.53.15,1,.74.31.56,1.37.56.57-.37,1.12-.37.52.64.22,1.12A1.21,1.21,0,0,0,35.47,56a.9.9,0,0,1,1.38.63,1.1,1.1,0,0,0-.64-1.86.66.66,0,0,0-.6-.64,9.07,9.07,0,0,0-1,0c-.39,0-.6.58-1.05.58-1.39,0-4.14-2.52-4.14-3.61S32,49.35,32,47.66c0-2.22-2.17-3-4-4.39a3.63,3.63,0,0,1,3.63-.37c.12-.62.52-.47.66-1.53.39.93,0,1.74.39,2.13.3-.45,1.09-.38,1-1.53.24.71-.31,1.82.24,2.3.1-.59.46-.7.68-.7s.42.16.42.51c0,.88-1.09.47-1.09,1.47,0,.42.53.56.53.83a.59.59,0,0,1-1,.34,1.12,1.12,0,0,0,1,.73,1.41,1.41,0,0,0,1.2-.89c.24.63.05,1.34-.4,1.43.48.24,1.62,0,1.49-1.45.65.11,1,.55.6,1.32.53-.13,1-.38,1-1s-.47-.56-.26-1.12"
         id="path3222" />
      <path
         class="cls-2"
         d="M80.66,56.38a1.38,1.38,0,1,1,1.39,1.38,1.38,1.38,0,0,1-1.39-1.38m-.47,0a1.85,1.85,0,1,0,1.86-1.85,1.86,1.86,0,0,0-1.86,1.85"
         id="path3224" />
      <path
         class="cls-2"
         d="M74.11,59.74c-.53-.09-.9-.49-.83-.87a.63.63,0,0,1,.26-.4,1.18,1.18,0,0,1,.82-.14,1,1,0,0,1,.84.78.31.31,0,0,1,0,.1.88.88,0,0,1-1.08.53m-.84-1.65a1,1,0,0,0-.17,1.61,1.62,1.62,0,0,0,.92.51,1.68,1.68,0,0,0,1-.15,1.09,1.09,0,0,0,.59-.77,1.35,1.35,0,0,0-1.21-1.43,1.58,1.58,0,0,0-1.18.23"
         id="path3226" />
      <path
         class="cls-2"
         d="M63,33.17a.94.94,0,0,1,.39-.71,1,1,0,0,1,.7-.22.46.46,0,0,1,.35.19.48.48,0,0,1,.09.38.94.94,0,0,1-.39.63.79.79,0,0,1-1,0,.53.53,0,0,1-.09-.3m.1-1.09a1.23,1.23,0,0,0-.38,1.68,1.24,1.24,0,0,0,1.72.05,1.44,1.44,0,0,0,.56-.94.94.94,0,0,0-.19-.73.9.9,0,0,0-.65-.37,1.46,1.46,0,0,0-1.06.31"
         id="path3228" />
      <path
         class="cls-2"
         d="M71.81,57.11h0a.55.55,0,0,1-.41-.19,1.11,1.11,0,0,1-.29-.79,1.07,1.07,0,0,1,.32-.77.57.57,0,0,1,.42-.19c.39,0,.71.45.69,1a1.12,1.12,0,0,1-.3.78.63.63,0,0,1-.43.17M71.09,55a1.64,1.64,0,0,0-.45,1.11v0a1.55,1.55,0,0,0,.42,1.1,1,1,0,0,0,.74.34,1.06,1.06,0,0,0,.76-.31A1.56,1.56,0,0,0,73,56.17a1.66,1.66,0,0,0-.31-1A1,1,0,0,0,71.09,55"
         id="path3230" />
      <path
         class="cls-2"
         d="M62.39,41.84a.87.87,0,0,1-.56-1.06.59.59,0,0,1,.35-.3,1.14,1.14,0,0,1,.84.08,1.08,1.08,0,0,1,.57.6.56.56,0,0,1-.36.76,1.09,1.09,0,0,1-.84-.08M62,40a1.07,1.07,0,0,0-.62.54,1.34,1.34,0,0,0,.78,1.7,1.54,1.54,0,0,0,1.2.09A1,1,0,0,0,64,41a1.58,1.58,0,0,0-.83-.88A1.6,1.6,0,0,0,62,40"
         id="path3232" />
      <path
         class="cls-2"
         d="M75.46,48.48a.89.89,0,0,1-1.16.34,1,1,0,0,1,1.1-1.56.89.89,0,0,1,.06,1.22m-2.18,3.44a.89.89,0,0,1-1.17.35,1,1,0,1,1,1.17-.35M65.78,33c.26-.8.75-2.4.75-2.4l.84.33a3.1,3.1,0,0,0-.81.57.86.86,0,0,0,.76-.05l-.33.84c-.08-.13-.31-.44-.55-.49A.87.87,0,0,0,67,32.93c.52.26.85.3,1,.07s-.18-.7-.6-.52c0-.44.2-.67.49-.67a.55.55,0,0,1,.48.49,1.35,1.35,0,0,1,1-1.47,1.42,1.42,0,0,1-.48,1.67.59.59,0,0,1,.72.09c.16.25.1.58-.29.79a.42.42,0,0,0-.77-.2c-.16.3.08.57.55.84a.88.88,0,0,0,1.28-.35,1,1,0,0,0-.79.15l.56-1a1.07,1.07,0,0,0,.36.62,1.35,1.35,0,0,0,0-1l1.21.7a1.33,1.33,0,0,0-.86.54,1.13,1.13,0,0,0,.71,0l-.64,1a1,1,0,0,0-.24-.76A.86.86,0,0,0,71,35.14c.47.28.83.34,1,.06a.42.42,0,0,0-.56-.57c0-.44.24-.66.53-.64s.41.27.45.57a1.42,1.42,0,0,1,1.21-1.26,1.37,1.37,0,0,1-.81,1.57.55.55,0,0,1,.67.17c.14.25.07.58-.34.77a.42.42,0,0,0-.75-.27c-.14.24.07.51.56.82a.86.86,0,0,0,1.22-.06,1.1,1.1,0,0,0-.69-.23l.56-.71a.89.89,0,0,0,.32.69,2.74,2.74,0,0,0,.1-1l.71.56-1.71,1.84Zm9.07,10.3a.65.65,0,0,1,.18-.42.57.57,0,0,1,.43-.15,1.06,1.06,0,0,1,.76.37,1.1,1.1,0,0,1,.32.77.56.56,0,0,1-.17.42h0a.71.71,0,0,1-.44.15,1.15,1.15,0,0,1-.75-.37,1.2,1.2,0,0,1-.33-.78m3.33,15.27a1.11,1.11,0,0,1,.49-.69,1.13,1.13,0,0,1,.82-.18.61.61,0,0,1,.39.25h0a.6.6,0,0,1,.07.44,1.09,1.09,0,0,1-.49.68.86.86,0,0,1-1.2-.06.59.59,0,0,1-.08-.45m-15.8-23a1,1,0,0,1-.29.65.47.47,0,0,1-.35.14c-.31,0-.55-.37-.55-.79v-.06a.92.92,0,0,1,.28-.66.52.52,0,0,1,.36-.13.51.51,0,0,1,.34.17.93.93,0,0,1,.21.68m4.89-10c.25-.49,0-1.25.9-1.25.45,0,.84.45,1.38.62a5.4,5.4,0,0,0-2.28.63M81.5,38.13c.61,1.65,1.81,2.25,2.72,1.82-2-.24-.39-3.73-3-3.73a1.87,1.87,0,0,0-.42,0,2.16,2.16,0,0,0-1.72-.67,3.26,3.26,0,0,0-3,3.3c0,4.78,5.55,5.2,5.55,9.43a1.93,1.93,0,0,1-2,2c-.94,0-1.69-1-2.48-2.69a20.3,20.3,0,0,0-2-3,1.48,1.48,0,0,0,.82.29,1,1,0,0,0,.77-.28,1.09,1.09,0,0,0,.33-.76v0a1.56,1.56,0,0,0-.45-1.07,1.58,1.58,0,0,0-1.09-.52,1.07,1.07,0,0,0-.78.28,1.12,1.12,0,0,0-.32.75v0a1.33,1.33,0,0,0,.09.49c-1.19-1.56-2.31-3.09-2.31-3.93a3.79,3.79,0,0,1,1.15-2.18l.22.13.16-.19,1.65-1.78,0-.07h0l.23-.24-.6-.48a6.54,6.54,0,0,0,.4-1.18c.19.77.58,1.26,1.13,1.11-.36-.8.36-1.86-.11-3.8.45.75,1.11,1.14,1.57,1-1.22-1.09.37-2.61-1.23-5a1,1,0,0,0,1.1-.18c-1.46-.21-.8-2.08-3.36-2.74.64-.11,1-.49.92-.82-.68.48-1.28-.91-3.5-.88a3.23,3.23,0,0,0-1.77-2.13A3,3,0,0,1,70,22.24l-7.25-7.11c-.21-.2-.33-.25-.39-.18s0,.21.09.36l6.21,7.79-1.4.54a.83.83,0,0,0-.54.81,12.68,12.68,0,0,0-2.67,1.74c-.39.35-.69.43-.36,1.21.14.3-.27,1,.63.5.59-.36,1.94-1.09,2.14-.63.1.25-.57.56-1,.73s-1,.52-.87.7.43,0,.45.17a.4.4,0,0,0,.36.39c.17,0,.41-.37.56-.25s-.07,1-.22,1.19a1.42,1.42,0,0,0,1.18-1.28c0-.52.15-.65.27-.72s.23.56.08.94c.38-.08.76-.57.71-1.47a1,1,0,0,1,.52-.27c.24,0,.71.66,1.38.66a2.06,2.06,0,0,0,2-1.47,1.43,1.43,0,0,0-.18-1,1.68,1.68,0,0,1,.58,1.32c0,1.75-3.08,2.58-4.35,3.78l-.13.13-1.46-.56-.09.32s0,.08-.08.28c-.15.49-.47,1.52-.67,2.12l-.07.23.12.08A8,8,0,0,0,63.83,37c-.35-.35-.67-.64-1-1,0-.13.06-.26.08-.4a1.39,1.39,0,0,0-.34-1,1,1,0,0,0-.66-.34,1,1,0,0,0-.71.26l-.13.14a1.58,1.58,0,0,0-.15-.12,11.61,11.61,0,0,1-1.43-1.2.72.72,0,0,0-.62-.26h-.65c-.21,0-.34.16-.58.37s-.45.37-.83.66c.19.18.36.36.53.55l.27.33.26-.2a.84.84,0,0,1,.53-.15.87.87,0,0,1,.64.41,35.61,35.61,0,0,0,2.27,2.81A2.24,2.24,0,0,0,61,38a5.29,5.29,0,0,1-1.77.11c-.41,0-.49-.14-.78.3-.11.17-.25.37-.38.54s-.25.36,0,.86c.43.72,1.49,2.62,1.85,3.48a2,2,0,0,0,1.43,1.27,9.79,9.79,0,0,1,2,1.1l0-.66a4,4,0,0,0-1.08-.53c-.24-.09-.31-.2,0-.2a7.17,7.17,0,0,1,1.68.53A5,5,0,0,0,62.77,43a1.53,1.53,0,0,0-1.18,0,.27.27,0,0,1-.27.3.25.25,0,0,1-.26-.34c.06-.19.35-.26.28-.62s-.51-.44-.81-.47c-.41-.59-.89-1.47-1.1-1.82s-.09-.56.06-.68c.35-.29,1.09.15,2.56.25.52,0,1.16.07,1.82.09a4.06,4.06,0,0,0,3.26,3.93,4,4,0,0,1,2.78,2.26c-4.75-.08-5.5,1.77-5.5,3.52,0,2,1.67,1.88,1.67,3.36,0,1.3-4,1.84-5.2,2a3.31,3.31,0,0,0-2.1.88c-.49.49-1,1-1.88,1.85a3.36,3.36,0,0,0,.76.06l.67-.87c.2-.29.34-.53.48-.51s0,.25-.12.56l-.56.94c2.35.15,2.5-.72,2.5-1.08s-.57-.6-.24-.82.63-.07.9.24.35.58,1,.34c0,0,5.11-2.12,5.76-2.41s.41-.52.06-.81a1.7,1.7,0,0,1-.44-1.36c0-1.55.93-2,2.6-2a5.05,5.05,0,0,0,0,.75c0,2.42,3.65,4.77,4.63,4.77.44,0,1-.32,1.08,1.13a14.72,14.72,0,0,1,0,3.06,2.3,2.3,0,0,1-1.3,1.95c-.74.53-1.44,2.16-1.75,2.51.33.21.68.24,1-.56a2.43,2.43,0,0,1,.77-1.28c-.29.72-.5,1.79-.64,2.11.94.16,2.45-.69,2.45-1.34S76,62.34,76,61.9a.49.49,0,0,1,.52-.41.75.75,0,0,1,.68.43c.42-.22.68-.62.67-1.59,0-.37,0-.77,0-1.16a1.19,1.19,0,0,0,.09.15,1.08,1.08,0,0,0,.84.47,1.59,1.59,0,0,0,1-.27,1.65,1.65,0,0,0,.7-1,1,1,0,0,0,0-.24,1,1,0,0,0-.17-.57,1.05,1.05,0,0,0-.68-.45,1.59,1.59,0,0,0-1.18.25,1.56,1.56,0,0,0-.67.9c-.08-1.32-.18-2.56-.14-3.06.05-.73.08-1.06-.17-1.17s-.52.3-.87.3a2.39,2.39,0,0,1-1.43-2c0-1,1.12-2.39,1.07-3.82,0-.44.26-.68.44-.27a6.61,6.61,0,0,0,1,1.69c-.3,1.8,1.68,3.54,3.3,2.24-.8.12-1.35-.59-1.71-1.31a2,2,0,0,0,.43,0h.25a1.75,1.75,0,0,0,2.85-1.1,1.84,1.84,0,0,1-1.44.58,2.9,2.9,0,0,0,1-2.33c0-4.55-5.53-5.09-5.53-9.24a2.54,2.54,0,0,1,2.28-2.52,1.42,1.42,0,0,1,.86.27,2.09,2.09,0,0,0-.52,1.59C79.62,41.55,85,41.39,85,43c.61-2.38-3.39-1.65-3.53-4.84"
         id="path3234" />
    </g>
  </g>
</svg>
